<svg id="Layer_1" data-name="Layer 1" xmlns="http://www.w3.org/2000/svg" viewBox="0 0 17.85 32.28"><defs><style>.cls-1{stroke:#ff0;stroke-miterlimit:10;stroke-width:2px;}</style></defs><title>cC_logoArtboard 1</title><path class="cls-1" d="M16.22,9.68a.63.63,0,0,1,.12.74l-9,19.3a.74.74,0,0,1-.7.42H6.39A.71.71,0,0,1,6,29.81a.63.63,0,0,1-.07-.5L9.17,15.8,2.4,17.49H2.2a.77.77,0,0,1-.51-.19.62.62,0,0,1-.21-.65L4.82,2.91a.71.71,0,0,1,.27-.38.75.75,0,0,1,.47-.15H11a.74.74,0,0,1,.53.2.66.66,0,0,1,.21.49.68.68,0,0,1-.08.3L8.85,11.09l6.6-1.63h.2A.78.78,0,0,1,16.22,9.68Z"/></svg>