<svg id="Layer_1" data-name="Layer 1" xmlns="http://www.w3.org/2000/svg" viewBox="0 0 17.85 32.28"><defs><style>.cls-1{fill:#ff0;stroke:#000;stroke-miterlimit:10;}</style></defs><title>cC_logoArtboard 1</title><path class="cls-1" d="M17.14,8.73a.71.71,0,0,1,.13.83L7.12,31.31a.83.83,0,0,1-.79.47l-.26,0a.8.8,0,0,1-.48-.36.71.71,0,0,1-.08-.56L9.2,15.63l-7.63,1.9-.23,0a.87.87,0,0,1-.58-.21.7.7,0,0,1-.24-.73L4.3,1.1A.8.8,0,0,1,4.6.67.85.85,0,0,1,5.13.5h6.17a.83.83,0,0,1,.6.23.74.74,0,0,1,.24.55.77.77,0,0,1-.09.34l-3.21,8.7,7.44-1.84.23,0A.88.88,0,0,1,17.14,8.73Z"/></svg>