<?xml version="1.0" encoding="utf-8"?>
<!-- Generator: Adobe Illustrator 21.1.0, SVG Export Plug-In . SVG Version: 6.00 Build 0)  -->
<svg version="1.1" id="Layer_1" xmlns="http://www.w3.org/2000/svg" xmlns:xlink="http://www.w3.org/1999/xlink" x="0px" y="0px"
	 viewBox="0 0 135 128.1" style="enable-background:new 0 0 135 128.1;" xml:space="preserve">
<style type="text/css">
	.st0{fill:#EFEFEF;}
	.st1{enable-background:new    ;}
	.st2{fill:#FFFFFF;}
</style>
<title>cC_logoArtboard 1</title>
<path class="st0" d="M13,1h109c6.6,0,12,5.4,12,12v102.1c0,6.6-5.4,12-12,12H13c-6.6,0-12-5.4-12-12V13C1,6.4,6.4,1,13,1z"/>
<g class="st1">
	<path class="st2" d="M12,74.2l0-0.2c0.2-12.3,10.1-22.9,22.7-22.7c8.3,0.1,13.4,4,17.5,8.3l-3.1,3.1c-3.7-3.9-8-7.3-14.6-7.4
		c-10-0.1-17.9,8.1-18,18.7l0,0.2c-0.1,10.6,7.8,19.2,17.9,19.3c6.2,0.1,11.1-3.1,14.8-7.1l2.9,2.6c-4.5,5-9.9,8.6-18,8.5
		C21.5,97.2,11.8,86.5,12,74.2z"/>
</g>
<g class="st1">
	<path class="st2" d="M57.2,62l0-0.2c0.2-19.7,15.1-35.8,35.2-35.5c12.4,0.2,19.8,4.8,26.9,11.4l-3.7,3.7
		c-6-5.9-12.9-10.4-23.3-10.5c-16.7-0.2-29.4,13.2-29.7,30.7l0,0.2c-0.2,17.6,12.4,31.4,29,31.6c10,0.1,16.9-3.7,24.1-10.5l3.4,3.4
		c-7.4,7.2-15.4,11.9-27.7,11.8C71.4,98,56.9,82,57.2,62z"/>
</g>
</svg>
