<svg id="Layer_1" data-name="Layer 1" xmlns="http://www.w3.org/2000/svg" viewBox="0 0 200 45.8"><defs><style>.cls-1{fill:#3c0;opacity:0.5;}</style></defs><title>ChiStarsArtboard 1</title><path class="cls-1" d="M19.85,0,24,15.65l15.65-4.2L28.24,22.9,39.69,34.35,24,30.15,19.85,45.8l-4.2-15.65L0,34.35,11.45,22.9,0,11.45l15.65,4.2ZM73.28,0l4.2,15.65,15.65-4.2L81.68,22.9,93.13,34.35l-15.65-4.2L73.28,45.8l-4.2-15.65-15.65,4.2L64.89,22.9,53.44,11.45l15.65,4.2Zm53.44,0,4.2,15.65,15.65-4.2L135.11,22.9l11.45,11.45-15.65-4.2-4.2,15.65-4.2-15.65-15.65,4.2L118.32,22.9,106.87,11.45l15.65,4.2Zm53.44,0,4.2,15.65L200,11.45,188.55,22.9,200,34.35l-15.65-4.2-4.2,15.65L176,30.15l-15.65,4.2L171.76,22.9,160.31,11.45,176,15.65Z"/></svg>