<svg id="Layer_1" data-name="Layer 1" xmlns="http://www.w3.org/2000/svg" viewBox="0 0 200 53"><defs><style>.cls-1{fill:#b3ddf2;}.cls-2{fill:#6c0;}.cls-3{fill:red;}</style></defs><title>GreenSpots_logo1_outlinesArtboard 1</title><path class="cls-1" d="M23.47,13.67H20.28v9.68c0,2.79.33,6.65-.95,9.16-1.47,2.83-4.94,3.75-8.36,3.75-4,0-8.69-.71-8.53-5.37H6.2c0,2.47,2.55,2.83,4.74,2.82,4.58,0,6.09-2,6.09-6.42v-2h-.08c-1,2.63-3.9,3.79-6.57,3.79-5.5,0-8.85-3.7-8.85-9.23,0-5.3,3.14-9.09,8.72-9.09,2.83,0,5.54,1.07,6.74,3.7h0V11.12h6.45ZM11.09,26.51c4,0,5.93-3,5.93-6.7,0-3.51-1.88-6.53-5.62-6.53-4.3,0-6.37,2.4-6.37,6.54C5,23.61,7,26.51,11.09,26.51Z"/><path class="cls-1" d="M24.8,26.73h3.15V13.66H24.78V11.12h6.41v3.71h.08c.55-2.75,2.82-4.11,5.57-4.11.6,0,1,0,1.47.08v2.67a12.37,12.37,0,0,0-2-.2c-4.58,0-5.17,4.83-5.17,8.53v4.94H35v2.55H24.8Z"/><path class="cls-1" d="M43.32,21.1c0,4.18,2.36,6,6.62,6,2.07,0,4.94-1.16,5.14-3.51h3c-.11,4.46-4.77,6.06-8.6,6.06-5.9,0-9.68-3.54-9.69-9.47s3.77-9.49,9.67-9.49c6.45,0,8.73,4.57,8.78,10.39ZM55,18.54c-.2-3.31-2.2-5.3-5.74-5.29-3.15,0-5.93,2-5.93,5.31Z"/><path class="cls-1" d="M64.47,21.08c0,4.18,2.36,6,6.62,6,2.07,0,4.94-1.16,5.14-3.51h3c-.11,4.46-4.77,6.06-8.6,6.06-5.9,0-9.68-3.54-9.69-9.47s3.77-9.49,9.67-9.49c6.45,0,8.73,4.57,8.78,10.39Zm11.67-2.56c-.2-3.31-2.2-5.3-5.74-5.29-3.15,0-5.93,2-5.93,5.3Z"/><path class="cls-1" d="M81.77,26.68h3.15V13.6H81.76V11.06h6.41v3.31h.08a6.34,6.34,0,0,1,6.09-3.71c4.54,0,6.46,2.26,6.46,6.61v9.4H104V29.2H94.4V26.66h3.15V17.93c0-2.91-1-4.74-4.19-4.74-3.51,0-5.18,2.48-5.17,5.7v7.77h3.15v2.55H81.77Z"/><path class="cls-1" d="M105.48,29.2V20.4h3.11c0,4.06,2.36,6.65,6.34,6.65,2.51,0,5.46-1.44,5.45-4.87,0-2.71-2.31-3.62-6.38-4.77-5.1-1.43-8.61-2.94-8.61-7.6s4.18-7.06,8.8-7.06c2.31,0,4.9,1,6,2.9h.12V3.13h3v8.61h-3.07c.15-4.18-2-6.45-6.1-6.45-2.51,0-5.06,1.32-5.06,4.51,0,2.19,2.47,3.3,6.86,4.65,5,1.55,8.13,2.86,8.13,7.72s-3.78,7.41-8.76,7.42c-2.91,0-5.3-1-6.74-3.42h-.12v3Z"/><path class="cls-1" d="M125.64,33.2h3.19l0-19.64h-3.19V11h6.45v3.63h.08a6.58,6.58,0,0,1,6.29-4c5.62,0,9,3.66,9,9.47s-3.18,9.49-9,9.49a6.55,6.55,0,0,1-6.3-3.9h-.08V33.2h3.19v2.55h-9.64ZM138.46,27c3.47,0,5.46-2.83,5.45-6.94,0-3.67-1.92-6.93-5.47-6.93-4.42,0-6.37,3.27-6.37,6.94C132.08,24.19,134.12,27,138.46,27Z"/><path class="cls-1" d="M179.68,13.51h-5.94v10.6c0,1.51.28,2.87,2,2.87,2,0,2.07-1.91,2.07-3.43h2.79c0,3.75-1.43,6-5.33,6-4.62,0-4.79-3.14-4.79-6.85V13.52h-3.55V11h3.55V7l3.27-1.12V11h5.94Z"/><path class="cls-1" d="M182.89,29.12V22.79h2.55a3.65,3.65,0,0,0,1.88,3.38,8.35,8.35,0,0,0,4.07.79c1.55,0,3.74-.88,3.74-2.83,0-2.47-2.67-2.43-4.67-2.7-3.35-.55-7.41-.95-7.42-5.17,0-3.86,3.7-5.7,7-5.7,2.35,0,4.54.75,5.54,2.58h.08V10.94h2.55v6H195.7a3.3,3.3,0,0,0-1.48-3.11,6.64,6.64,0,0,0-3.51-.71c-1.91,0-4.42.52-4.42,2.83,0,2.07,3.11,2.11,5.46,2.54,3.23.55,6.85,1.07,6.86,5.17s-3.86,5.86-7.56,5.86c-2.15,0-4.7-.83-5.54-2.9h-.08v2.51Z"/><path class="cls-2" d="M164.78,12.77a11.27,11.27,0,0,1,.66,2.17,9.63,9.63,0,0,1-.25,5,13.32,13.32,0,0,1-2.63,4.51,11.24,11.24,0,0,1-4.23,3.15,10.3,10.3,0,0,1-3.29.79q-.18,0-1.14-.05a3.46,3.46,0,0,0-1.2,0q-.17.07-.28.52a8.26,8.26,0,0,0-.17,1,4,4,0,0,1-.25,1,1,1,0,0,1-.5.62,1.13,1.13,0,0,1-.76.1,2.85,2.85,0,0,1-.76-.43l-.11-.09-.1-.08-.08-.09a.7.7,0,0,1-.08-.14,1.39,1.39,0,0,1,0-.93,4.19,4.19,0,0,1,.43-1,8.47,8.47,0,0,0,.48-.91.91.91,0,0,0,.12-.66,2.91,2.91,0,0,0-.32-.35,3.81,3.81,0,0,1-.37-.4,7,7,0,0,1-.57-1.08,6.65,6.65,0,0,1-.53-2.57,7,7,0,0,1,.44-2.53A10.19,10.19,0,0,1,150.49,18a10.94,10.94,0,0,1,1.76-2,7.67,7.67,0,0,1,1.45-.93q.94-.49,1.89-.91t1.9-.88a9.43,9.43,0,0,0,1.65-1,3,3,0,0,0,1-1.12l.18-.45q.12-.3.19-.44a3.72,3.72,0,0,1,.2-.34,1.26,1.26,0,0,1,.32-.34,2.27,2.27,0,0,1,.45-.25,1,1,0,0,1,1,.18,3.94,3.94,0,0,1,1,1,14.76,14.76,0,0,1,.82,1.23A8.51,8.51,0,0,1,164.78,12.77Zm-6.66,3.05a.75.75,0,0,0-1-1,11.51,11.51,0,0,0-3.2,2,10.9,10.9,0,0,0-2.19,2.62,19.42,19.42,0,0,0-1.54,3.43.77.77,0,0,0,0,.57.76.76,0,0,0,1,.4.77.77,0,0,0,.4-.41q.18-.38.47-1.1t.42-1a10.56,10.56,0,0,1,2.09-3.12,10,10,0,0,1,3.14-2A.72.72,0,0,0,158.11,15.82Z"/><path class="cls-3" d="M33.37,38.66a13.41,13.41,0,0,0-5.84-1.52,4.35,4.35,0,0,0-3.17,1.06,4.79,4.79,0,0,0-1.52,3.67,4.47,4.47,0,0,0,4.71,4.73,14.25,14.25,0,0,0,4.62-1l1.38,1.11v2.63a17.31,17.31,0,0,1-6.11,1.25c-4.73,0-8.6-3.24-8.6-8.76a8.4,8.4,0,0,1,2.44-6.29,8.3,8.3,0,0,1,6.2-2.44,15.93,15.93,0,0,1,4.71.75l1.18,1ZM31.9,34.18a15.41,15.41,0,0,0-4.53-.66,7.89,7.89,0,0,0-8.15,7.78c0,2.78,1.92,7.85,8.4,7.85a14.32,14.32,0,0,0,4.46-.79V46.08a13.91,13.91,0,0,1-4.59.91,5.67,5.67,0,1,1,.07-11.31,14.22,14.22,0,0,1,4.34.79Z"/><path class="cls-3" d="M38.28,33.36l1.34,1.11v5.29h5.63v-6.4H48l1.36,1.11V50.4h-3L45.25,49V43.73H39.62V50.4h-3L35.52,49V33.36Zm-2.38.38V48.93h2.24V42.39h7.49v6.54H47.9V33.75H45.63v6.4H38.14v-6.4Z"/><path class="cls-3" d="M55.23,33.36l1.31,1.11V50.4h-3l-1.06-1.31V33.36Zm-2.38.38V48.93h2.22V33.75Z"/><path class="cls-3" d="M73.21,38.66a13.41,13.41,0,0,0-5.84-1.52,4.35,4.35,0,0,0-3.17,1.06,4.79,4.79,0,0,0-1.52,3.67A4.47,4.47,0,0,0,67.4,46.6a14.25,14.25,0,0,0,4.62-1l1.38,1.11v2.63a17.31,17.31,0,0,1-6.11,1.25c-4.73,0-8.6-3.24-8.6-8.76a8.4,8.4,0,0,1,2.44-6.29,8.3,8.3,0,0,1,6.2-2.44,15.93,15.93,0,0,1,4.71.75l1.18,1Zm-1.47-4.48a15.41,15.41,0,0,0-4.53-.66,7.89,7.89,0,0,0-8.15,7.78c0,2.78,1.92,7.85,8.4,7.85a14.32,14.32,0,0,0,4.46-.79V46.08a13.91,13.91,0,0,1-4.59.91,5.67,5.67,0,1,1,.07-11.31,14.22,14.22,0,0,1,4.34.79Z"/><path class="cls-3" d="M83.08,33.25l1.54.79L90.45,50.4H86.88l-1.18-1-.81-2.26h-5.5l-1.22,3.3H75.5l-1.27-1.27,6-15.88Zm-2.53.38-5.82,15.3h2.42l1.22-3.24h6.47L86,48.93h2.4L83,33.63Zm3.53,10H79.16l2.56-6.65Zm-1.86-4.12-1.38,3.73h2.67Z"/><path class="cls-3" d="M105,38.61a13.63,13.63,0,0,0-5.93-1.49,4.37,4.37,0,0,0-4.62,4.64c0,2.51,1.33,4.82,4.93,4.82a6.39,6.39,0,0,0,1.79-.2V44.86H99.68l-1-1.2V41H104l1.31,1.11v7.24a16.22,16.22,0,0,1-6.09,1.29c-4.53,0-8.71-3-8.71-8.8a8.27,8.27,0,0,1,8.67-8.69,16,16,0,0,1,4.62.7L105,34.92Zm-1.47-4.43a15.6,15.6,0,0,0-4.46-.66,7.83,7.83,0,1,0,0,15.64,15.07,15.07,0,0,0,4.68-.84V41.37H99.12v2.15h2.49v3.15a10.17,10.17,0,0,1-2.35.29,5.66,5.66,0,0,1-4.57-1.81,5.5,5.5,0,0,1-1.52-3.8,5.66,5.66,0,0,1,6-5.7,13.22,13.22,0,0,1,4.41.79Z"/><path class="cls-3" d="M115.9,33.14c4.62,0,8.46,3.35,8.46,8.92,0,5.14-3.51,8.58-8.35,8.58A8.3,8.3,0,0,1,107.51,42C107.51,36.37,111.36,33.14,115.9,33.14Zm-6.06,13.51a7.86,7.86,0,0,0,5.7,2.42c3.3,0,7.13-2.22,7.13-7.56,0-4.82-3.35-8-7.17-8a7.72,7.72,0,0,0-7.56,8.12A6.58,6.58,0,0,0,109.84,46.64Zm5.61-10.86c2.49,0,5,2.08,5,5.63,0,3-1.74,5.36-4.93,5.36a5.08,5.08,0,0,1-5.29-5.36A5.35,5.35,0,0,1,115.45,35.78Zm.32,10.61c1.88,0,4.25-1.56,4.25-4.87s-2.1-4.66-4-4.66c-1.7,0-4.14,1-4.14,4.73C111.92,45.6,114.52,46.4,115.77,46.4Z"/></svg>