<svg id="Layer_1" data-name="Layer 1" xmlns="http://www.w3.org/2000/svg" viewBox="0 0 200 53"><defs><style>.cls-1{font-size:39.84px;fill:#b3ddf2;font-family:SerifaStd-Roman, Serifa Std;letter-spacing:-0.03em;}.cls-2{letter-spacing:-0.05em;}.cls-3{letter-spacing:-0.03em;}.cls-4{fill:#6c0;}.cls-5{font-size:22.62px;fill:red;font-family:GillSansShadowMTPro, Gill Sans Shadow MT Pro;}.cls-6{letter-spacing:-0.04em;}.cls-7{letter-spacing:0em;}</style></defs><title>greenSpot_logoArtboard 1</title><text class="cls-1" transform="translate(0.04 29.33) rotate(-0.06)">greenSp<tspan class="cls-2" x="148.01" y="0" xml:space="preserve">  </tspan><tspan class="cls-3" x="166.18" y="0">ts</tspan></text><path class="cls-4" d="M164.78,12.77a11.27,11.27,0,0,1,.66,2.17,9.63,9.63,0,0,1-.25,5,13.32,13.32,0,0,1-2.63,4.51,11.24,11.24,0,0,1-4.23,3.15,10.3,10.3,0,0,1-3.29.79q-.18,0-1.14-.05a3.46,3.46,0,0,0-1.2,0q-.17.07-.28.52a8.26,8.26,0,0,0-.17,1,4,4,0,0,1-.25,1,1,1,0,0,1-.5.62,1.13,1.13,0,0,1-.76.1,2.85,2.85,0,0,1-.76-.43l-.11-.09-.1-.08-.08-.09a.7.7,0,0,1-.08-.14,1.39,1.39,0,0,1,0-.93,4.19,4.19,0,0,1,.43-1,8.47,8.47,0,0,0,.48-.91.91.91,0,0,0,.12-.66,2.91,2.91,0,0,0-.32-.35,3.81,3.81,0,0,1-.37-.4,7,7,0,0,1-.57-1.08,6.65,6.65,0,0,1-.53-2.57,7,7,0,0,1,.44-2.53A10.19,10.19,0,0,1,150.49,18a10.94,10.94,0,0,1,1.76-2,7.67,7.67,0,0,1,1.45-.93q.94-.49,1.89-.91t1.9-.88a9.43,9.43,0,0,0,1.65-1,3,3,0,0,0,1-1.12l.18-.45q.12-.3.19-.44a3.72,3.72,0,0,1,.2-.34,1.26,1.26,0,0,1,.32-.34,2.27,2.27,0,0,1,.45-.25,1,1,0,0,1,1,.18,3.94,3.94,0,0,1,1,1,14.76,14.76,0,0,1,.82,1.23A8.51,8.51,0,0,1,164.78,12.77Zm-6.66,3.05a.75.75,0,0,0-1-1,11.51,11.51,0,0,0-3.2,2,10.9,10.9,0,0,0-2.19,2.62,19.42,19.42,0,0,0-1.54,3.43.77.77,0,0,0,0,.57.76.76,0,0,0,1,.4.77.77,0,0,0,.4-.41q.18-.38.47-1.1t.42-1a10.56,10.56,0,0,1,2.09-3.12,10,10,0,0,1,3.14-2A.72.72,0,0,0,158.11,15.82Z"/><text class="cls-5" transform="translate(18.26 50.4)">Chic<tspan class="cls-6" x="55.63" y="0">a</tspan><tspan class="cls-7" x="71.51" y="0">go</tspan></text></svg>