<svg id="Layer_1" data-name="Layer 1" xmlns="http://www.w3.org/2000/svg" viewBox="0 0 33 26.14"><defs><style>.cls-1{fill:#6c0;}</style></defs><title>cC_logoArtboard 1</title><path class="cls-1" d="M32.5,7.25a17.19,17.19,0,0,1-.36,3.45,14.71,14.71,0,0,1-3.29,6.84,20.36,20.36,0,0,1-6.38,4.79,17.18,17.18,0,0,1-7.82,1.93,15.73,15.73,0,0,1-5.11-.84q-.27-.09-1.57-.75A5.27,5.27,0,0,0,6.25,22q-.29,0-.71.57a12.55,12.55,0,0,0-.8,1.25,6.16,6.16,0,0,1-.94,1.25,1.55,1.55,0,0,1-1.07.57,1.72,1.72,0,0,1-1.13-.31,4.34,4.34,0,0,1-.81-1.06l-.11-.2-.1-.18a.79.79,0,0,1-.05-.17,1.05,1.05,0,0,1,0-.24,2.13,2.13,0,0,1,.55-1.31A6.4,6.4,0,0,1,2.27,21a13.07,13.07,0,0,0,1.21-1q.55-.52.55-.86a4.46,4.46,0,0,0-.25-.68,5.8,5.8,0,0,1-.29-.79,10.69,10.69,0,0,1-.16-1.86,10.16,10.16,0,0,1,.78-3.93A10.65,10.65,0,0,1,6.24,8.6a15.58,15.58,0,0,1,3-2.48,16.7,16.7,0,0,1,3.64-1.71A11.68,11.68,0,0,1,15.52,4q1.61-.13,3.21-.16t3.19-.11a14.4,14.4,0,0,0,2.92-.43,4.59,4.59,0,0,0,2-1l.53-.53q.35-.35.53-.5a5.63,5.63,0,0,1,.48-.36A1.93,1.93,0,0,1,29,.58,3.45,3.45,0,0,1,29.82.5a1.56,1.56,0,0,1,1.26.82,6,6,0,0,1,.85,2q.29,1.18.43,2.21A13.07,13.07,0,0,1,32.5,7.25ZM23,11.59a1.14,1.14,0,0,0-.8-1.95,17.58,17.58,0,0,0-5.68.88,16.66,16.66,0,0,0-4.63,2.39A29.69,29.69,0,0,0,7.7,16.84a1.18,1.18,0,0,0-.34.8A1.16,1.16,0,0,0,8.5,18.79a1.18,1.18,0,0,0,.8-.34q.48-.43,1.32-1.27L11.82,16a16.13,16.13,0,0,1,4.79-3.14,15.23,15.23,0,0,1,5.6-.93A1.1,1.1,0,0,0,23,11.59Z"/></svg>