<svg id="Layer_1" data-name="Layer 1" xmlns="http://www.w3.org/2000/svg" viewBox="0 0 26.72 32.31"><defs><style>.cls-1{fill:#060;stroke:#000;stroke-miterlimit:10;}</style></defs><title>cC_logoArtboard 1</title><path class="cls-1" d="M26.22,26.22a1.13,1.13,0,0,1-1.12,1.12H17q0,.3.1,1.53t.09,1.9a1,1,0,0,1-.31.74,1,1,0,0,1-.75.31H10.56a1,1,0,0,1-.75-.31,1,1,0,0,1-.31-.74q0-.67.09-1.9t.1-1.53H1.62A1.07,1.07,0,0,1,.83,27a1.1,1.1,0,0,1,0-1.57l7-7h-4a1.11,1.11,0,0,1-.79-1.9l7-7H6.65a1.11,1.11,0,0,1-.79-1.9L12.57.83a1.1,1.1,0,0,1,1.57,0l6.71,6.71a1.12,1.12,0,0,1-.79,1.9H16.63l7,7a1.12,1.12,0,0,1-.79,1.9h-4l7,7A1.08,1.08,0,0,1,26.22,26.22Z"/></svg>